<svg data-v-423bf9ae="" xmlns="http://www.w3.org/2000/svg" viewBox="0 0 286.34696387053225 60" class="font"><!----><!----><!----><g data-v-423bf9ae="" id="7b8b7125-84a3-45ff-a676-3e55ea7e9438" fill="#7DE38D" transform="matrix(6.1224493980407715,0,0,6.1224493980407715,-1.7755193710327148,-11.816326141357422)"><path d="M0.50 6.39L0.50 1.94L5.41 1.94L5.41 3.57L2.45 3.57L2.45 5.89L5.00 5.89L5.04 5.91L5.02 5.95L5.02 5.95Q5.00 6.44 5.00 6.52L5.00 6.52L4.72 6.52L4.72 6.54L4.72 6.54Q4.72 6.71 4.69 7.29L4.69 7.29L4.95 7.29L4.95 7.29Q4.95 7.57 4.90 7.57L4.90 7.57L3.10 7.57L3.10 7.91L2.17 7.91L2.17 8.09L2.45 8.09L2.45 8.94L3.38 8.94L3.38 9.09L2.45 9.09L2.45 11.46L2.43 11.58L1.42 11.58L1.42 11.73L0.53 11.73L0.53 11.73Q0.50 11.73 0.50 11.70L0.50 11.70L0.50 11.45L0.52 11.29L1.00 11.29L1.00 11.04L0.50 11.04L0.50 10.10L0.73 10.10L0.73 6.64L1.13 6.64L1.13 6.39L0.50 6.39ZM0.33 8.75L0.33 8.44L0.40 8.44L0.40 8.44Q0.44 8.44 0.44 8.47L0.44 8.47L0.44 8.70L0.44 8.70Q0.44 8.80 0.49 8.80L0.49 8.80L0.55 8.80L0.55 8.80Q0.57 8.80 0.60 8.75L0.60 8.75L0.60 8.47L0.60 8.47Q0.61 8.44 0.64 8.44L0.64 8.44L0.70 8.44L0.70 8.75L0.70 8.75Q0.70 8.89 0.50 8.89L0.50 8.89L0.50 8.89Q0.33 8.87 0.33 8.75L0.33 8.75ZM2.48 8.68L2.48 8.60L2.50 8.60L2.50 8.60Q2.75 8.72 2.80 8.72L2.80 8.72L2.80 8.81L2.50 8.91L2.48 8.91L2.48 8.86L2.48 8.86Q2.48 8.84 2.68 8.76L2.68 8.76L2.68 8.75L2.68 8.75Q2.65 8.75 2.48 8.68L2.48 8.68ZM2.43 8.94L1.54 8.94L1.54 9.09L2.43 9.09L2.43 8.94ZM0.47 9.01L0.47 9.01L0.49 9.01L0.49 9.01Q0.66 9.01 0.66 9.16L0.66 9.16L0.55 9.16L0.55 9.16Q0.55 9.09 0.47 9.09L0.47 9.09L0.47 9.09Q0.44 9.09 0.42 9.14L0.42 9.14L0.42 9.14Q0.66 9.24 0.66 9.28L0.66 9.28L0.66 9.28Q0.66 9.29 0.68 9.32L0.68 9.32L0.68 9.32Q0.68 9.45 0.49 9.47L0.49 9.47L0.49 9.47Q0.30 9.45 0.30 9.30L0.30 9.30L0.42 9.30L0.42 9.30Q0.42 9.37 0.45 9.37L0.45 9.37L0.53 9.37L0.53 9.37Q0.57 9.37 0.57 9.34L0.57 9.34L0.57 9.30L0.57 9.30Q0.32 9.24 0.32 9.17L0.32 9.17L0.32 9.11L0.32 9.11Q0.38 9.01 0.47 9.01ZM0.30 9.58L0.30 9.58L0.36 9.58L0.36 9.58Q0.45 9.58 0.49 9.72L0.49 9.72L0.60 9.58L0.68 9.58L0.68 9.62L0.68 9.62Q0.57 9.78 0.57 9.84L0.57 9.84L0.57 9.84Q0.59 9.84 0.70 10.01L0.70 10.01L0.70 10.04L0.60 10.04L0.60 10.04Q0.59 10.04 0.49 9.90L0.49 9.90L0.49 9.90Q0.42 10.02 0.38 10.04L0.38 10.04L0.29 10.04L0.29 10.04Q0.40 9.83 0.44 9.82L0.44 9.82L0.44 9.82Q0.30 9.62 0.30 9.58ZM6.13 7.49L6.13 1.96L9.48 1.96L9.48 1.96Q11.16 1.96 11.66 3.14L11.66 3.14L11.66 3.14Q11.87 3.75 11.87 4.53L11.87 4.53L11.87 4.94L11.87 4.94Q11.87 6.36 11.25 7.11L11.25 7.11L10.53 7.11L10.53 7.47L11.62 7.47L11.62 9.81L10.98 9.81L10.98 10.17L11.95 10.17L11.95 11.55L9.91 11.55L9.91 9.34L9.13 9.34L9.13 7.92L7.76 7.92L7.76 10.34L8.05 10.34L8.05 11.73L6.17 11.73L6.17 11.73Q6.13 11.73 6.13 11.70L6.13 11.70L6.13 7.77L6.97 7.77L6.97 7.49L6.13 7.49ZM8.86 3.55L8.05 3.55L8.05 6.31L8.52 6.31L8.52 6.31Q9.56 6.31 9.73 6.11L9.73 6.11L9.73 6.11Q9.90 6.00 9.99 5.67L9.99 5.67L10.72 5.67L10.72 5.32L10.06 5.32L10.06 5.35L10.06 5.35Q10.01 5.67 9.98 5.67L9.98 5.67L9.04 5.67L9.04 5.32L10.03 5.32L10.03 5.32Q10.06 5.32 10.06 5.29L10.06 5.29L10.06 5.29Q10.08 4.87 10.08 4.81L10.08 4.81L10.08 4.81Q10.08 3.90 9.76 3.69L9.76 3.69L9.76 3.69Q9.52 3.55 8.86 3.55L8.86 3.55ZM7.94 8.16L7.84 8.00L7.92 8.00L7.92 8.00Q7.99 8.03 7.99 8.10L7.99 8.10L7.99 8.10Q8.02 8.10 8.05 8.00L8.05 8.00L8.16 8.00L8.16 8.02L8.05 8.16L8.05 8.16Q8.05 8.18 8.17 8.35L8.17 8.35L8.17 8.36L8.09 8.36L8.09 8.36Q8.07 8.36 7.99 8.24L7.99 8.24L7.99 8.24Q7.94 8.35 7.91 8.36L7.91 8.36L7.83 8.36L7.83 8.36Q7.94 8.19 7.94 8.16L7.94 8.16ZM7.85 8.56L7.85 8.49L8.16 8.49L8.16 8.54L7.97 8.77L8.16 8.77L8.16 8.85L7.84 8.85L7.84 8.79L8.02 8.56L7.85 8.56ZM12.54 1.93L12.54 1.93L14.54 1.93L14.54 1.93Q14.58 1.93 15.18 3.51L15.18 3.51L15.18 3.51Q15.24 3.56 16.44 6.60L16.44 6.60L16.95 6.60L16.95 1.93L18.71 1.93L18.71 7.49L18.91 7.49L18.91 9.66L18.20 9.66L18.20 10.08L18.91 10.08L18.91 11.37L16.28 11.37L16.28 9.73L15.81 9.73L15.81 9.73Q14.87 7.42 14.54 6.55L14.54 6.55L14.54 4.89L14.29 4.89L14.29 9.93L13.90 9.93L13.90 11.66L12.26 11.66L12.26 7.92L12.56 7.92L12.56 7.91L12.56 7.91Q12.54 3.07 12.54 1.93ZM18.79 5.35L18.79 4.98L18.98 4.98L18.98 4.98Q19.11 4.98 19.11 5.11L19.11 5.11L19.11 5.11Q19.11 5.16 19.06 5.16L19.06 5.16L19.06 5.16Q19.11 5.22 19.11 5.31L19.11 5.31L19.11 5.35L19.02 5.35L19.02 5.35Q19.01 5.21 18.98 5.21L18.98 5.21L18.89 5.21L18.89 5.35L18.79 5.35ZM19.01 5.06L18.89 5.06L18.89 5.15L18.98 5.15L18.98 5.15Q19.01 5.15 19.01 5.11L19.01 5.11L19.01 5.06ZM18.79 5.48L18.79 5.48L19.07 5.48L19.07 5.56L18.98 5.56L18.98 5.84L18.87 5.84L18.87 5.56L18.79 5.56L18.79 5.56Q18.76 5.56 18.76 5.52L18.76 5.52L18.76 5.51L18.76 5.51Q18.76 5.48 18.79 5.48ZM18.76 5.97L18.76 5.97L18.83 5.97L18.83 5.97Q18.87 5.97 18.91 6.19L18.91 6.19L18.94 6.19L18.99 5.97L19.09 5.97L18.98 6.34L18.89 6.34L18.89 6.34Q18.85 6.34 18.76 5.97ZM18.78 6.47L18.78 6.47L18.87 6.47L18.87 6.47Q18.88 6.53 18.94 6.57L18.94 6.57L18.94 6.57Q19.00 6.47 19.02 6.47L19.02 6.47L19.09 6.47L19.09 6.49L19.09 6.49Q18.99 6.64 18.99 6.67L18.99 6.67L18.99 6.67Q19.02 6.67 19.11 6.83L19.11 6.83L18.99 6.83L18.99 6.83Q18.99 6.78 18.93 6.73L18.93 6.73L18.93 6.73Q18.87 6.83 18.84 6.83L18.84 6.83L18.76 6.83L18.76 6.83Q18.87 6.66 18.87 6.65L18.87 6.65L18.87 6.65Q18.78 6.49 18.78 6.47ZM16.41 6.60L15.48 6.60L15.48 6.97L16.58 6.97L16.58 6.97Q16.45 6.60 16.41 6.60L16.41 6.60ZM17.77 6.60L16.97 6.60L16.97 6.97L16.59 6.97L16.59 6.97Q16.94 7.84 17.01 8.11L17.01 8.11L17.02 8.11L17.02 8.06L17.02 8.06Q16.97 7.16 16.97 6.97L16.97 6.97L17.77 6.97L17.77 6.60ZM18.79 7.33L18.79 6.97L18.96 6.97L18.96 6.97Q19.13 6.99 19.13 7.13L19.13 7.13L19.13 7.14L19.13 7.14Q19.13 7.33 18.98 7.33L18.98 7.33L18.79 7.33ZM18.98 7.05L18.89 7.05L18.89 7.26L18.89 7.26Q19.02 7.26 19.02 7.16L19.02 7.16L19.02 7.14L19.02 7.14Q19.02 7.06 18.98 7.05L18.98 7.05ZM15.91 9.83L15.91 9.83L16.16 9.83L16.16 9.91L15.98 9.91L15.98 9.97L16.13 9.97L16.13 9.97Q16.16 9.98 16.16 10.01L16.16 10.01L16.16 10.03L16.16 10.03Q16.16 10.06 16.13 10.06L16.13 10.06L15.98 10.06L15.98 10.12L16.15 10.12L16.15 10.12Q16.18 10.13 16.18 10.16L16.18 10.16L16.18 10.17L16.18 10.17Q16.18 10.21 16.15 10.21L16.15 10.21L15.91 10.21L15.91 10.21Q15.88 10.21 15.88 10.17L15.88 10.17L15.88 9.86L15.88 9.86Q15.89 9.83 15.91 9.83ZM13.92 10.01L13.92 10.01L14.03 10.01L14.03 10.01Q14.10 10.21 14.10 10.24L14.10 10.24L14.11 10.24L14.11 10.24Q14.15 10.01 14.19 10.01L14.19 10.01L14.26 10.01L14.26 10.03L14.26 10.03Q14.16 10.38 14.13 10.38L14.13 10.38L14.04 10.38L14.04 10.38Q14.04 10.33 13.92 10.01ZM16.04 10.32L16.04 10.32L16.08 10.32L16.08 10.32Q16.11 10.33 16.11 10.36L16.11 10.36L16.11 10.58L16.11 10.58Q16.11 10.66 16.03 10.71L16.03 10.71L15.98 10.71L15.98 10.71Q15.87 10.71 15.87 10.59L15.87 10.59L15.87 10.55L15.95 10.55L15.95 10.55Q15.95 10.62 15.98 10.62L15.98 10.62L16.01 10.62L16.01 10.36L16.01 10.36Q16.02 10.32 16.04 10.32ZM15.91 10.82L15.91 10.82L15.95 10.82L15.95 10.82Q15.98 10.82 15.98 10.95L15.98 10.95L16.13 10.82L16.21 10.82L16.21 10.83L16.08 10.99L16.08 10.99Q16.10 10.99 16.23 11.18L16.23 11.18L16.19 11.20L16.15 11.20L16.15 11.20Q16.13 11.20 16.01 11.05L16.01 11.05L16.01 11.05Q15.98 11.05 15.96 11.20L15.96 11.20L15.91 11.20L15.91 11.20Q15.88 11.20 15.88 11.17L15.88 11.17L15.88 10.86L15.88 10.86Q15.89 10.82 15.91 10.82ZM16.28 11.73L16.28 11.55L19.46 11.55L19.46 11.73L16.28 11.73ZM19.35 3.57L19.35 1.93L25.09 1.93L25.09 3.57L23.19 3.57L23.19 10.34L24.06 10.34L24.06 10.54L23.19 10.54L23.19 11.29L22.68 11.29L22.68 11.55L23.04 11.55L23.04 11.73L21.30 11.73L21.30 11.73Q21.27 11.73 21.27 11.70L21.27 11.70L21.27 3.57L19.35 3.57ZM23.18 10.34L22.52 10.34L22.52 10.54L23.18 10.54L23.18 10.34ZM25.53 6.77L25.53 1.94L30.35 1.94L30.35 3.54L30.35 3.54Q30.35 3.58 30.32 3.58L30.32 3.58L27.45 3.58L27.45 5.70L30.02 5.70L30.02 5.71L30.02 5.71Q30.02 5.81 29.99 6.75L29.99 6.75L29.99 6.75Q29.98 6.75 29.98 6.77L29.98 6.77L30.09 6.77L30.09 7.27L27.86 7.27L27.86 9.28L27.27 9.28L27.27 9.47L27.86 9.47L27.86 10.08L30.39 10.08L30.39 10.32L30.19 10.32L30.19 11.52L27.17 11.52L27.17 11.73L25.74 11.73L25.74 8.22L25.53 8.22L25.53 6.99L23.96 6.99L23.96 6.77L25.53 6.77ZM26.35 6.77L25.54 6.77L25.54 6.99L26.35 6.99L26.35 6.77ZM28.01 10.04L28.01 9.59L28.13 9.59L28.13 9.75L28.14 9.75L28.14 9.75Q28.14 9.71 28.29 9.59L28.29 9.59L28.41 9.59L28.25 9.77L28.42 10.04L28.31 10.04L28.31 10.04Q28.18 9.85 28.16 9.85L28.16 9.85L28.16 9.85Q28.13 9.86 28.13 9.88L28.13 9.88L28.13 10.04L28.01 10.04ZM28.59 10.04L28.59 9.59L28.82 9.59L28.82 9.59Q28.93 9.59 28.97 9.72L28.97 9.72L28.97 9.72Q28.97 9.74 28.90 9.84L28.90 9.84L28.90 9.84Q28.95 9.84 28.97 10.04L28.97 10.04L28.89 10.04L28.89 10.04Q28.85 10.04 28.83 9.87L28.83 9.87L28.70 9.87L28.70 10.04L28.59 10.04ZM29.33 9.59L29.33 9.59L29.39 9.59L29.39 9.59Q29.54 9.59 29.58 9.79L29.58 9.79L29.58 9.85L29.58 9.85Q29.58 9.91 29.53 9.97L29.53 9.97L29.53 9.99L29.53 9.99Q29.58 9.99 29.58 10.01L29.58 10.01L29.58 10.01Q29.58 10.04 29.53 10.07L29.53 10.07L29.53 10.07Q29.50 10.07 29.48 10.01L29.48 10.01L29.39 10.04L29.33 10.04L29.33 10.04Q29.17 10.04 29.15 9.79L29.15 9.79L29.15 9.79Q29.20 9.59 29.33 9.59ZM29.26 9.79L29.26 9.79L29.26 9.84L29.26 9.84Q29.26 9.95 29.38 9.95L29.38 9.95L29.39 9.95L29.39 9.93L29.37 9.93L29.37 9.92L29.37 9.92Q29.37 9.89 29.42 9.87L29.42 9.87L29.46 9.90L29.46 9.90Q29.46 9.89 29.48 9.80L29.48 9.80L29.48 9.80Q29.47 9.67 29.35 9.67L29.35 9.67L29.35 9.67Q29.26 9.69 29.26 9.79ZM28.82 9.69L28.70 9.69L28.70 9.79L28.82 9.79L28.82 9.79Q28.85 9.79 28.85 9.75L28.85 9.75L28.85 9.72L28.85 9.72Q28.85 9.69 28.82 9.69L28.82 9.69ZM30.29 10.51L30.29 10.41L30.39 10.41L30.39 10.43L30.39 10.43Q30.39 10.73 30.34 10.73L30.34 10.73L30.34 10.73Q30.29 10.73 30.29 10.51L30.29 10.51ZM30.29 10.84L30.29 10.74L30.39 10.74L30.39 10.84L30.29 10.84ZM31.12 1.93L31.12 1.93L33.12 1.93L33.12 1.93Q33.16 1.93 33.76 3.51L33.76 3.51L33.76 3.51Q33.82 3.56 35.02 6.60L35.02 6.60L35.53 6.60L35.53 1.93L37.29 1.93L37.29 7.49L37.49 7.49L37.49 9.66L36.78 9.66L36.78 10.08L37.49 10.08L37.49 11.37L34.86 11.37L34.86 9.73L34.39 9.73L34.39 9.73Q33.45 7.42 33.12 6.55L33.12 6.55L33.12 4.89L32.87 4.89L32.87 9.93L32.48 9.93L32.48 11.66L30.84 11.66L30.84 7.92L31.14 7.92L31.14 7.91L31.14 7.91Q31.12 3.07 31.12 1.93ZM37.37 5.35L37.37 4.98L37.56 4.98L37.56 4.98Q37.69 4.98 37.69 5.11L37.69 5.11L37.69 5.11Q37.69 5.16 37.64 5.16L37.64 5.16L37.64 5.16Q37.69 5.22 37.69 5.31L37.69 5.31L37.69 5.35L37.60 5.35L37.60 5.35Q37.59 5.21 37.56 5.21L37.56 5.21L37.47 5.21L37.47 5.35L37.37 5.35ZM37.59 5.06L37.47 5.06L37.47 5.15L37.56 5.15L37.56 5.15Q37.59 5.15 37.59 5.11L37.59 5.11L37.59 5.06ZM37.37 5.48L37.37 5.48L37.65 5.48L37.65 5.56L37.56 5.56L37.56 5.84L37.45 5.84L37.45 5.56L37.37 5.56L37.37 5.56Q37.34 5.56 37.34 5.52L37.34 5.52L37.34 5.51L37.34 5.51Q37.34 5.48 37.37 5.48ZM37.34 5.97L37.34 5.97L37.41 5.97L37.41 5.97Q37.45 5.97 37.49 6.19L37.49 6.19L37.52 6.19L37.57 5.97L37.67 5.97L37.56 6.34L37.47 6.34L37.47 6.34Q37.43 6.34 37.34 5.97ZM37.36 6.47L37.36 6.47L37.45 6.47L37.45 6.47Q37.46 6.53 37.52 6.57L37.52 6.57L37.52 6.57Q37.58 6.47 37.60 6.47L37.60 6.47L37.67 6.47L37.67 6.49L37.67 6.49Q37.57 6.64 37.57 6.67L37.57 6.67L37.57 6.67Q37.60 6.67 37.69 6.83L37.69 6.83L37.57 6.83L37.57 6.83Q37.57 6.78 37.51 6.73L37.51 6.73L37.51 6.73Q37.45 6.83 37.42 6.83L37.42 6.83L37.34 6.83L37.34 6.83Q37.45 6.66 37.45 6.65L37.45 6.65L37.45 6.65Q37.36 6.49 37.36 6.47ZM34.99 6.60L34.06 6.60L34.06 6.97L35.16 6.97L35.16 6.97Q35.03 6.60 34.99 6.60L34.99 6.60ZM36.35 6.60L35.55 6.60L35.55 6.97L35.17 6.97L35.17 6.97Q35.52 7.84 35.59 8.11L35.59 8.11L35.60 8.11L35.60 8.06L35.60 8.06Q35.55 7.16 35.55 6.97L35.55 6.97L36.35 6.97L36.35 6.60ZM37.37 7.33L37.37 6.97L37.54 6.97L37.54 6.97Q37.71 6.99 37.71 7.13L37.71 7.13L37.71 7.14L37.71 7.14Q37.71 7.33 37.56 7.33L37.56 7.33L37.37 7.33ZM37.56 7.05L37.47 7.05L37.47 7.26L37.47 7.26Q37.60 7.26 37.60 7.16L37.60 7.16L37.60 7.14L37.60 7.14Q37.60 7.06 37.56 7.05L37.56 7.05ZM34.49 9.83L34.49 9.83L34.74 9.83L34.74 9.91L34.56 9.91L34.56 9.97L34.71 9.97L34.71 9.97Q34.74 9.98 34.74 10.01L34.74 10.01L34.74 10.03L34.74 10.03Q34.74 10.06 34.71 10.06L34.71 10.06L34.56 10.06L34.56 10.12L34.73 10.12L34.73 10.12Q34.76 10.13 34.76 10.16L34.76 10.16L34.76 10.17L34.76 10.17Q34.76 10.21 34.73 10.21L34.73 10.21L34.49 10.21L34.49 10.21Q34.46 10.21 34.46 10.17L34.46 10.17L34.46 9.86L34.46 9.86Q34.47 9.83 34.49 9.83ZM32.50 10.01L32.50 10.01L32.61 10.01L32.61 10.01Q32.68 10.21 32.68 10.24L32.68 10.24L32.69 10.24L32.69 10.24Q32.73 10.01 32.77 10.01L32.77 10.01L32.84 10.01L32.84 10.03L32.84 10.03Q32.74 10.38 32.71 10.38L32.71 10.38L32.62 10.38L32.62 10.38Q32.62 10.33 32.50 10.01ZM34.62 10.32L34.62 10.32L34.66 10.32L34.66 10.32Q34.69 10.33 34.69 10.36L34.69 10.36L34.69 10.58L34.69 10.58Q34.69 10.66 34.61 10.71L34.61 10.71L34.56 10.71L34.56 10.71Q34.45 10.71 34.45 10.59L34.45 10.59L34.45 10.55L34.53 10.55L34.53 10.55Q34.53 10.62 34.56 10.62L34.56 10.62L34.59 10.62L34.59 10.36L34.59 10.36Q34.60 10.32 34.62 10.32ZM34.49 10.82L34.49 10.82L34.53 10.82L34.53 10.82Q34.56 10.82 34.56 10.95L34.56 10.95L34.71 10.82L34.79 10.82L34.79 10.83L34.66 10.99L34.66 10.99Q34.68 10.99 34.81 11.18L34.81 11.18L34.77 11.20L34.73 11.20L34.73 11.20Q34.71 11.20 34.59 11.05L34.59 11.05L34.59 11.05Q34.56 11.05 34.54 11.20L34.54 11.20L34.49 11.20L34.49 11.20Q34.46 11.20 34.46 11.17L34.46 11.17L34.46 10.86L34.46 10.86Q34.47 10.82 34.49 10.82ZM34.86 11.73L34.86 11.55L38.04 11.55L38.04 11.73L34.86 11.73ZM38.71 6.62L38.71 1.94L41.68 1.94L41.68 1.94Q43.54 1.94 44.25 3.21L44.25 3.21L44.25 3.21Q44.84 4.20 44.84 6.48L44.84 6.48L45.13 6.48L45.13 8.82L42.24 8.82L42.24 8.56L43.14 8.56L43.14 6.48L42.88 6.48L42.88 5.63L42.88 5.63Q42.88 4.18 42.24 3.79L42.24 3.79L42.24 3.79Q41.86 3.57 41.02 3.57L41.02 3.57L40.63 3.57L40.63 6.43L40.89 6.43L40.89 8.82L38.93 8.82L38.93 6.62L38.71 6.62ZM42.93 8.09L42.93 8.09L43.03 8.09L43.03 8.34L43.08 8.34L43.08 8.42L43.03 8.42L43.03 8.52L42.93 8.52L42.93 8.42L42.75 8.42L42.75 8.36L42.75 8.36Q42.93 8.11 42.93 8.09ZM42.85 8.34L42.85 8.34L42.93 8.34L42.93 8.24L42.93 8.24Q42.91 8.24 42.85 8.34ZM41.12 8.54L40.99 8.33L41.08 8.33L41.08 8.33Q41.10 8.33 41.19 8.44L41.19 8.44L41.19 8.44Q41.25 8.36 41.25 8.33L41.25 8.33L41.36 8.33L41.36 8.34L41.36 8.34Q41.25 8.50 41.25 8.54L41.25 8.54L41.38 8.75L41.25 8.75L41.25 8.75Q41.25 8.70 41.17 8.62L41.17 8.62L41.17 8.62Q41.11 8.74 41.07 8.75L41.07 8.75L40.97 8.75L40.97 8.75Q41.08 8.55 41.12 8.54L41.12 8.54ZM37.83 9.13L37.83 8.82L38.72 8.82L38.72 9.13L40.89 9.13L40.89 9.78L42.24 9.78L42.24 9.13L45.13 9.13L45.13 9.78L43.14 9.78L43.14 11.52L40.89 11.52L40.89 11.73L38.73 11.73L38.73 11.73Q38.71 11.73 38.71 11.70L38.71 11.70L38.71 9.13L37.83 9.13ZM40.89 9.13L40.89 8.82L42.24 8.82L42.24 9.13L40.89 9.13ZM45.13 9.13L45.13 8.82L47.06 8.82L47.06 9.13L45.13 9.13ZM43.37 9.84L43.37 9.84L43.49 9.84L43.49 9.84Q43.61 10.16 43.63 10.28L43.63 10.28L43.55 10.28L43.55 10.28Q43.52 10.28 43.50 10.19L43.50 10.19L43.37 10.19L43.37 10.19Q43.34 10.19 43.33 10.28L43.33 10.28L43.22 10.28L43.22 10.27L43.22 10.27Q43.22 10.25 43.37 9.84ZM43.75 9.84L43.75 9.84L43.85 9.84L43.93 10.12L43.95 10.12L43.95 10.12Q43.95 10.09 44.03 9.84L44.03 9.84L44.13 9.84L44.13 9.84Q44.13 9.89 44.00 10.28L44.00 10.28L43.90 10.28L43.90 10.28Q43.86 10.28 43.75 9.84ZM44.30 10.28L44.30 9.84L44.41 9.84L44.41 10.28L44.30 10.28ZM44.60 10.28L44.60 9.84L44.79 9.84L44.79 9.84Q45.00 9.84 45.00 10.08L45.00 10.08L45.00 10.08Q45.00 10.25 44.79 10.28L44.79 10.28L44.60 10.28ZM44.82 9.94L44.72 9.94L44.72 10.19L44.82 10.19L44.82 10.19Q44.84 10.19 44.88 10.12L44.88 10.12L44.88 10.00L44.88 10.00Q44.88 9.98 44.82 9.94L44.82 9.94ZM43.44 9.97L43.42 9.97L43.42 9.97Q43.42 9.99 43.39 10.10L43.39 10.10L43.47 10.10L43.47 10.10Q43.44 9.99 43.44 9.97L43.44 9.97Z"></path></g><!----><!----></svg>